<svg width="1440" height="1024" viewBox="0 0 1440 1024" fill="none" xmlns="http://www.w3.org/2000/svg">
  <defs>
    <linearGradient id="coverbg" x1="80" y1="64" x2="1360" y2="960" gradientUnits="userSpaceOnUse">
      <stop stop-color="#FFF9F2"/>
      <stop offset="1" stop-color="#FFF1E5"/>
    </linearGradient>
    <linearGradient id="accent" x1="0" y1="0" x2="1" y2="1">
      <stop stop-color="#FFB541"/>
      <stop offset="1" stop-color="#FF7422"/>
    </linearGradient>
  </defs>
  <rect width="1440" height="1024" rx="40" fill="url(#coverbg)"/>
  <rect x="80" y="80" width="1280" height="864" rx="36" fill="white" stroke="#F3D8C2" stroke-width="4"/>
  <image href="meetu-mascot-standard-pose.png" x="126" y="136" width="312" height="418" preserveAspectRatio="xMidYMid meet"/>
  <text x="480" y="322" font-family="Nunito, Arial, sans-serif" font-size="156" font-weight="800" fill="url(#accent)">Meetu</text>
  <text x="486" y="462" font-family="'Noto Sans SC', 'PingFang SC', sans-serif" font-size="116" font-weight="700" fill="#F28B24">觅遇社</text>
  <text x="486" y="574" font-family="Nunito, Arial, sans-serif" font-size="58" font-weight="800" fill="#3F3133">UI Design Guide</text>
  <rect x="486" y="630" width="420" height="12" rx="6" fill="#FFD8BA"/>
  <text x="486" y="730" font-family="'Noto Sans SC', 'PingFang SC', sans-serif" font-size="44" font-weight="600" fill="#665156">品牌识别 · 组件语言 · 页面气质</text>
  <g transform="translate(1040 220)">
    <rect x="0" y="0" width="170" height="170" rx="34" fill="#FFB13B"/>
    <rect x="0" y="216" width="170" height="170" rx="34" fill="#FEB5C0"/>
    <rect x="0" y="432" width="170" height="170" rx="34" fill="#57494D"/>
    <rect x="216" y="0" width="170" height="170" rx="34" fill="#FFF0E2" stroke="#F0CFAF" stroke-width="4"/>
    <rect x="216" y="216" width="170" height="170" rx="34" fill="#FFF7F1" stroke="#F0CFAF" stroke-width="4"/>
    <rect x="216" y="432" width="170" height="170" rx="34" fill="white" stroke="#F0CFAF" stroke-width="4"/>
  </g>
</svg>
