<svg width="1200" height="420" viewBox="0 0 1200 420" fill="none" xmlns="http://www.w3.org/2000/svg">
  <defs>
    <linearGradient id="brandGradient" x1="382" y1="72" x2="958" y2="286" gradientUnits="userSpaceOnUse">
      <stop stop-color="#F5A623"/>
      <stop offset="0.48" stop-color="#FF9B7A"/>
      <stop offset="1" stop-color="#FF7EB3"/>
    </linearGradient>
    <linearGradient id="scarfGradient" x1="92" y1="228" x2="232" y2="286" gradientUnits="userSpaceOnUse">
      <stop stop-color="#F5A623"/>
      <stop offset="1" stop-color="#FF7EB3"/>
    </linearGradient>
    <filter id="shadow" x="10" y="8" width="320" height="360" filterUnits="userSpaceOnUse" color-interpolation-filters="sRGB">
      <feDropShadow dx="0" dy="10" stdDeviation="10" flood-color="#E5B6C8" flood-opacity="0.28"/>
    </filter>
  </defs>

  <rect width="1200" height="420" rx="36" fill="#FFF8F2"/>
  <circle cx="1046" cy="82" r="14" fill="#FFD86B" opacity="0.8"/>
  <circle cx="1080" cy="118" r="7" fill="#FFB5CF" opacity="0.9"/>
  <circle cx="344" cy="350" r="10" fill="#BEECD9" opacity="0.9"/>

  <g filter="url(#shadow)">
    <path d="M135 54C147 32 173 18 205 18C237 18 263 32 275 54C301 58 320 78 320 105C320 132 301 152 275 156V257C275 314 236 350 182 350C128 350 89 314 89 257V156C63 152 44 132 44 105C44 78 63 58 89 54C101 32 127 18 159 18C191 18 217 32 229 54" fill="#FFF6E9" stroke="#5A3B34" stroke-width="14" stroke-linecap="round" stroke-linejoin="round"/>
    <rect x="104" y="92" width="158" height="102" rx="38" fill="#5B4553" stroke="#5A3B34" stroke-width="14"/>
    <rect x="132" y="124" width="18" height="34" rx="9" fill="#FFD457"/>
    <rect x="216" y="124" width="18" height="34" rx="9" fill="#FFD457"/>
    <path d="M162 168C172 177 194 177 204 168" stroke="#FFD457" stroke-width="12" stroke-linecap="round"/>
    <path d="M84 222C112 206 150 202 182 202C214 202 254 206 282 222L265 264C242 252 212 245 182 245C152 245 122 252 99 264L84 222Z" fill="url(#scarfGradient)" stroke="#5A3B34" stroke-width="14" stroke-linejoin="round"/>
    <path d="M117 277C99 292 89 314 89 338" stroke="#5A3B34" stroke-width="14" stroke-linecap="round"/>
    <path d="M247 277C265 292 275 314 275 338" stroke="#5A3B34" stroke-width="14" stroke-linecap="round"/>
    <path d="M132 338C132 320 142 306 157 306C170 306 178 317 178 331V352H132V338Z" fill="#FFF6E9" stroke="#5A3B34" stroke-width="14" stroke-linejoin="round"/>
    <path d="M186 331C186 317 194 306 207 306C222 306 232 320 232 338V352H186V331Z" fill="#FFF6E9" stroke="#5A3B34" stroke-width="14" stroke-linejoin="round"/>
    <path d="M74 240C58 250 50 270 52 288C69 284 83 274 92 260" fill="#FFF6E9"/>
    <path d="M74 240C58 250 50 270 52 288C69 284 83 274 92 260" stroke="#5A3B34" stroke-width="14" stroke-linecap="round" stroke-linejoin="round"/>
    <path d="M289 240C305 250 313 270 311 288C294 284 280 274 271 260" fill="#FFF6E9"/>
    <path d="M289 240C305 250 313 270 311 288C294 284 280 274 271 260" stroke="#5A3B34" stroke-width="14" stroke-linecap="round" stroke-linejoin="round"/>
    <path d="M232 32C232 18 220 8 205 8C190 8 178 18 178 32" stroke="#5A3B34" stroke-width="14" stroke-linecap="round"/>
    <path d="M184 32C184 18 172 8 157 8C142 8 130 18 130 32" stroke="#5A3B34" stroke-width="14" stroke-linecap="round"/>
    <path d="M278 86L288 100L304 102L292 114L295 130L278 121L262 130L265 114L252 102L268 100L278 86Z" fill="#FFD86B"/>
  </g>

  <g>
    <text x="382" y="178" fill="url(#brandGradient)" font-size="138" font-weight="800" font-family="Avenir Next, Nunito, Arial Rounded MT Bold, PingFang SC, sans-serif" letter-spacing="-4">Meetu</text>
    <text x="382" y="292" fill="url(#brandGradient)" font-size="92" font-weight="700" font-family="PingFang SC, Hiragino Sans GB, Microsoft YaHei, sans-serif" letter-spacing="2">觅遇社</text>
    <rect x="386" y="320" width="238" height="44" rx="22" fill="#FFF0DE"/>
    <text x="418" y="350" fill="#9E6331" font-size="28" font-weight="700" font-family="PingFang SC, Hiragino Sans GB, Microsoft YaHei, sans-serif">找到你的搭子</text>
    <path d="M1020 286L1030 300L1046 302L1034 314L1037 330L1020 321L1004 330L1007 314L994 302L1010 300L1020 286Z" fill="#BEECD9"/>
  </g>
</svg>
